<mxfile host="app.diagrams.net" modified="2024-03-08T09:40:58.618Z" agent="Mozilla/5.0 (Windows NT 10.0; Win64; x64) AppleWebKit/537.36 (KHTML, like Gecko) Chrome/122.0.0.0 Safari/537.36 Edg/122.0.0.0" etag="2RQqEc91Q7XdC9ldJqmm" version="23.1.3" type="device">
  <diagram name="Page-1" id="0rACvr15XXUMkoUEjzlt">
    <mxGraphModel dx="1386" dy="785" grid="1" gridSize="10" guides="1" tooltips="1" connect="1" arrows="1" fold="1" page="1" pageScale="1" pageWidth="1100" pageHeight="850" math="0" shadow="0">
      <root>
        <mxCell id="0" />
        <mxCell id="1" parent="0" />
        <mxCell id="Rhv-N49-wGEwY5A1lcQx-12" style="edgeStyle=orthogonalEdgeStyle;rounded=0;orthogonalLoop=1;jettySize=auto;html=1;entryX=0.5;entryY=0;entryDx=0;entryDy=0;" edge="1" parent="1" source="Rhv-N49-wGEwY5A1lcQx-1" target="Rhv-N49-wGEwY5A1lcQx-7">
          <mxGeometry relative="1" as="geometry" />
        </mxCell>
        <mxCell id="Rhv-N49-wGEwY5A1lcQx-13" style="edgeStyle=orthogonalEdgeStyle;rounded=0;orthogonalLoop=1;jettySize=auto;html=1;entryX=0.5;entryY=0;entryDx=0;entryDy=0;" edge="1" parent="1" source="Rhv-N49-wGEwY5A1lcQx-1" target="Rhv-N49-wGEwY5A1lcQx-6">
          <mxGeometry relative="1" as="geometry" />
        </mxCell>
        <mxCell id="Rhv-N49-wGEwY5A1lcQx-14" style="edgeStyle=orthogonalEdgeStyle;rounded=0;orthogonalLoop=1;jettySize=auto;html=1;" edge="1" parent="1" source="Rhv-N49-wGEwY5A1lcQx-1" target="Rhv-N49-wGEwY5A1lcQx-2">
          <mxGeometry relative="1" as="geometry" />
        </mxCell>
        <mxCell id="Rhv-N49-wGEwY5A1lcQx-15" style="edgeStyle=orthogonalEdgeStyle;rounded=0;orthogonalLoop=1;jettySize=auto;html=1;" edge="1" parent="1" source="Rhv-N49-wGEwY5A1lcQx-1" target="Rhv-N49-wGEwY5A1lcQx-8">
          <mxGeometry relative="1" as="geometry" />
        </mxCell>
        <mxCell id="Rhv-N49-wGEwY5A1lcQx-20" style="edgeStyle=orthogonalEdgeStyle;rounded=0;orthogonalLoop=1;jettySize=auto;html=1;" edge="1" parent="1" source="Rhv-N49-wGEwY5A1lcQx-1" target="Rhv-N49-wGEwY5A1lcQx-16">
          <mxGeometry relative="1" as="geometry" />
        </mxCell>
        <mxCell id="Rhv-N49-wGEwY5A1lcQx-1" value="DashBoard" style="rounded=0;whiteSpace=wrap;html=1;" vertex="1" parent="1">
          <mxGeometry x="560" y="70" width="120" height="60" as="geometry" />
        </mxCell>
        <mxCell id="Rhv-N49-wGEwY5A1lcQx-22" style="edgeStyle=orthogonalEdgeStyle;rounded=0;orthogonalLoop=1;jettySize=auto;html=1;entryX=0.5;entryY=0;entryDx=0;entryDy=0;" edge="1" parent="1" source="Rhv-N49-wGEwY5A1lcQx-2" target="Rhv-N49-wGEwY5A1lcQx-21">
          <mxGeometry relative="1" as="geometry" />
        </mxCell>
        <mxCell id="Rhv-N49-wGEwY5A1lcQx-2" value="Sidebar" style="rounded=0;whiteSpace=wrap;html=1;" vertex="1" parent="1">
          <mxGeometry x="280" y="180" width="120" height="60" as="geometry" />
        </mxCell>
        <mxCell id="Rhv-N49-wGEwY5A1lcQx-10" style="edgeStyle=orthogonalEdgeStyle;rounded=0;orthogonalLoop=1;jettySize=auto;html=1;" edge="1" parent="1" source="Rhv-N49-wGEwY5A1lcQx-3" target="Rhv-N49-wGEwY5A1lcQx-4">
          <mxGeometry relative="1" as="geometry" />
        </mxCell>
        <mxCell id="Rhv-N49-wGEwY5A1lcQx-11" style="edgeStyle=orthogonalEdgeStyle;rounded=0;orthogonalLoop=1;jettySize=auto;html=1;entryX=0.5;entryY=0;entryDx=0;entryDy=0;" edge="1" parent="1" source="Rhv-N49-wGEwY5A1lcQx-3" target="Rhv-N49-wGEwY5A1lcQx-5">
          <mxGeometry relative="1" as="geometry" />
        </mxCell>
        <mxCell id="Rhv-N49-wGEwY5A1lcQx-19" style="edgeStyle=orthogonalEdgeStyle;rounded=0;orthogonalLoop=1;jettySize=auto;html=1;entryX=0.5;entryY=0;entryDx=0;entryDy=0;" edge="1" parent="1" source="Rhv-N49-wGEwY5A1lcQx-3" target="Rhv-N49-wGEwY5A1lcQx-18">
          <mxGeometry relative="1" as="geometry" />
        </mxCell>
        <mxCell id="Rhv-N49-wGEwY5A1lcQx-3" value="Post" style="rounded=0;whiteSpace=wrap;html=1;" vertex="1" parent="1">
          <mxGeometry x="560" y="290" width="120" height="60" as="geometry" />
        </mxCell>
        <mxCell id="Rhv-N49-wGEwY5A1lcQx-17" style="edgeStyle=orthogonalEdgeStyle;rounded=0;orthogonalLoop=1;jettySize=auto;html=1;" edge="1" parent="1" source="Rhv-N49-wGEwY5A1lcQx-4" target="Rhv-N49-wGEwY5A1lcQx-5">
          <mxGeometry relative="1" as="geometry" />
        </mxCell>
        <mxCell id="Rhv-N49-wGEwY5A1lcQx-4" value="Comment" style="rounded=0;whiteSpace=wrap;html=1;" vertex="1" parent="1">
          <mxGeometry x="560" y="400" width="120" height="60" as="geometry" />
        </mxCell>
        <mxCell id="Rhv-N49-wGEwY5A1lcQx-5" value="User" style="rounded=0;whiteSpace=wrap;html=1;" vertex="1" parent="1">
          <mxGeometry x="390" y="400" width="120" height="60" as="geometry" />
        </mxCell>
        <mxCell id="Rhv-N49-wGEwY5A1lcQx-9" style="edgeStyle=orthogonalEdgeStyle;rounded=0;orthogonalLoop=1;jettySize=auto;html=1;" edge="1" parent="1" source="Rhv-N49-wGEwY5A1lcQx-6" target="Rhv-N49-wGEwY5A1lcQx-3">
          <mxGeometry relative="1" as="geometry" />
        </mxCell>
        <mxCell id="Rhv-N49-wGEwY5A1lcQx-6" value="Posts" style="rounded=0;whiteSpace=wrap;html=1;" vertex="1" parent="1">
          <mxGeometry x="560" y="180" width="120" height="60" as="geometry" />
        </mxCell>
        <mxCell id="Rhv-N49-wGEwY5A1lcQx-7" value="Header" style="rounded=0;whiteSpace=wrap;html=1;" vertex="1" parent="1">
          <mxGeometry x="920" y="180" width="120" height="60" as="geometry" />
        </mxCell>
        <mxCell id="Rhv-N49-wGEwY5A1lcQx-8" value="Profile" style="rounded=0;whiteSpace=wrap;html=1;" vertex="1" parent="1">
          <mxGeometry x="280" y="290" width="120" height="60" as="geometry" />
        </mxCell>
        <mxCell id="Rhv-N49-wGEwY5A1lcQx-16" value="CreatePost" style="rounded=0;whiteSpace=wrap;html=1;" vertex="1" parent="1">
          <mxGeometry x="730" y="180" width="120" height="60" as="geometry" />
        </mxCell>
        <mxCell id="Rhv-N49-wGEwY5A1lcQx-18" value="CreateComment" style="rounded=0;whiteSpace=wrap;html=1;" vertex="1" parent="1">
          <mxGeometry x="740" y="400" width="120" height="60" as="geometry" />
        </mxCell>
        <mxCell id="Rhv-N49-wGEwY5A1lcQx-21" value="DashBoard" style="rounded=0;whiteSpace=wrap;html=1;" vertex="1" parent="1">
          <mxGeometry x="140" y="290" width="120" height="60" as="geometry" />
        </mxCell>
      </root>
    </mxGraphModel>
  </diagram>
</mxfile>
